<mxfile host="app.diagrams.net" modified="2020-12-17T21:04:39.898Z" agent="5.0 (Windows NT 10.0; Win64; x64) AppleWebKit/537.36 (KHTML, like Gecko) Chrome/85.0.4183.121 Safari/537.36 OPR/71.0.3770.456" etag="Moy_V96b4ZQeZ1DRaIVa" version="14.0.5" type="github">
  <diagram id="pdguJLIA3mUSvuKfgM-j" name="Page-1">
    <mxGraphModel dx="1061" dy="615" grid="1" gridSize="10" guides="1" tooltips="1" connect="1" arrows="1" fold="1" page="1" pageScale="1" pageWidth="827" pageHeight="1169" math="0" shadow="0">
      <root>
        <mxCell id="0" />
        <mxCell id="1" parent="0" />
        <mxCell id="PXGVnG9pf4Wbyl8ogmTq-5" style="edgeStyle=orthogonalEdgeStyle;rounded=0;orthogonalLoop=1;jettySize=auto;html=1;exitX=1;exitY=0.3333333333333333;exitDx=0;exitDy=0;exitPerimeter=0;entryX=0;entryY=0.5;entryDx=0;entryDy=0;" edge="1" parent="1" source="PXGVnG9pf4Wbyl8ogmTq-1" target="PXGVnG9pf4Wbyl8ogmTq-2">
          <mxGeometry relative="1" as="geometry" />
        </mxCell>
        <mxCell id="PXGVnG9pf4Wbyl8ogmTq-6" style="edgeStyle=orthogonalEdgeStyle;rounded=0;orthogonalLoop=1;jettySize=auto;html=1;exitX=1;exitY=1;exitDx=0;exitDy=0;exitPerimeter=0;entryX=0;entryY=0.5;entryDx=0;entryDy=0;" edge="1" parent="1" source="PXGVnG9pf4Wbyl8ogmTq-1" target="PXGVnG9pf4Wbyl8ogmTq-3">
          <mxGeometry relative="1" as="geometry" />
        </mxCell>
        <mxCell id="PXGVnG9pf4Wbyl8ogmTq-1" value="Actor" style="shape=umlActor;verticalLabelPosition=bottom;verticalAlign=top;html=1;outlineConnect=0;" vertex="1" parent="1">
          <mxGeometry x="120" y="320" width="30" height="60" as="geometry" />
        </mxCell>
        <mxCell id="PXGVnG9pf4Wbyl8ogmTq-9" style="edgeStyle=orthogonalEdgeStyle;rounded=0;orthogonalLoop=1;jettySize=auto;html=1;exitX=1;exitY=0.5;exitDx=0;exitDy=0;" edge="1" parent="1" source="PXGVnG9pf4Wbyl8ogmTq-3">
          <mxGeometry relative="1" as="geometry">
            <mxPoint x="490" y="460" as="targetPoint" />
            <Array as="points">
              <mxPoint x="490" y="460" />
            </Array>
          </mxGeometry>
        </mxCell>
        <mxCell id="PXGVnG9pf4Wbyl8ogmTq-2" value="Ввод денег" style="ellipse;whiteSpace=wrap;html=1;" vertex="1" parent="1">
          <mxGeometry x="260" y="280" width="120" height="80" as="geometry" />
        </mxCell>
        <mxCell id="PXGVnG9pf4Wbyl8ogmTq-7" style="edgeStyle=orthogonalEdgeStyle;rounded=0;orthogonalLoop=1;jettySize=auto;html=1;exitX=0.5;exitY=1;exitDx=0;exitDy=0;entryX=0.5;entryY=0;entryDx=0;entryDy=0;" edge="1" parent="1" source="PXGVnG9pf4Wbyl8ogmTq-2" target="PXGVnG9pf4Wbyl8ogmTq-3">
          <mxGeometry relative="1" as="geometry" />
        </mxCell>
        <mxCell id="PXGVnG9pf4Wbyl8ogmTq-3" value="Выбор кофе" style="ellipse;whiteSpace=wrap;html=1;" vertex="1" parent="1">
          <mxGeometry x="260" y="420" width="120" height="80" as="geometry" />
        </mxCell>
        <mxCell id="PXGVnG9pf4Wbyl8ogmTq-10" style="edgeStyle=orthogonalEdgeStyle;rounded=0;orthogonalLoop=1;jettySize=auto;html=1;exitX=0.5;exitY=1;exitDx=0;exitDy=0;entryX=0.5;entryY=1;entryDx=0;entryDy=0;" edge="1" parent="1" source="PXGVnG9pf4Wbyl8ogmTq-8" target="PXGVnG9pf4Wbyl8ogmTq-3">
          <mxGeometry relative="1" as="geometry" />
        </mxCell>
        <mxCell id="PXGVnG9pf4Wbyl8ogmTq-8" value="Готовка кофе" style="ellipse;whiteSpace=wrap;html=1;" vertex="1" parent="1">
          <mxGeometry x="490" y="420" width="120" height="80" as="geometry" />
        </mxCell>
      </root>
    </mxGraphModel>
  </diagram>
</mxfile>
